<?xml version="1.0" standalone="no"?>
<!DOCTYPE svg PUBLIC "-//W3C//DTD SVG 20010904//EN"
 "http://www.w3.org/TR/2001/REC-SVG-20010904/DTD/svg10.dtd">
<svg version="1.0" xmlns="http://www.w3.org/2000/svg"
 width="16.000000pt" height="16.000000pt" viewBox="0 0 16.000000 16.000000"
 preserveAspectRatio="xMidYMid meet">
<metadata>
Created by potrace 1.11, written by Peter Selinger 2001-2013
</metadata>
<g transform="translate(0.000000,16.000000) scale(0.005714,-0.005714)"
fill="#000000" stroke="none">
<path d="M1170 2538 c0 -5 28 -48 61 -96 l62 -87 61 5 c33 3 88 2 121 -2 33
-3 61 -6 61 -5 6 7 11 138 5 141 -39 24 -371 64 -371 44z"/>
<path d="M953 2514 c-107 -23 -303 -109 -303 -132 0 -7 338 -162 352 -162 5 0
28 16 53 35 25 19 66 43 91 55 l46 20 -38 52 c-86 121 -109 148 -124 147 -8
-1 -43 -7 -77 -15z"/>
<path d="M1626 2462 c-3 -3 -6 -33 -6 -67 l0 -62 43 -12 c23 -7 75 -28 115
-47 40 -19 76 -34 80 -34 5 0 17 19 28 42 10 24 20 46 22 49 7 15 -270 143
-282 131z"/>
<path d="M481 2247 c-73 -75 -122 -145 -166 -241 -47 -100 -51 -116 -28 -117
23 -1 543 -1 563 0 11 1 19 20 26 69 6 37 22 91 36 119 17 37 22 55 14 61 -6
5 -69 35 -141 67 -71 32 -152 69 -179 82 -28 12 -53 23 -56 23 -4 0 -35 -28
-69 -63z"/>
<path d="M1966 2268 c-8 -13 -20 -36 -27 -51 -11 -24 -10 -29 7 -41 10 -8 39
-30 63 -49 l45 -35 48 24 c26 13 48 27 48 31 0 8 -25 29 -112 98 l-57 46 -15
-23z"/>
<path d="M1347 2274 c-4 -4 31 -35 76 -69 82 -62 149 -128 221 -217 27 -34 46
-48 63 -48 l24 0 -22 33 c-36 50 -197 208 -267 260 -62 45 -82 54 -95 41z"/>
<path d="M1425 2273 c6 -6 53 -42 105 -81 52 -38 133 -109 179 -156 l83 -86
87 0 c47 0 117 -5 155 -10 38 -6 70 -9 72 -7 7 7 -134 142 -192 183 -81 58
-186 109 -275 134 -82 22 -230 38 -214 23z"/>
<path d="M1278 2263 c-25 -6 -22 -18 9 -39 45 -29 165 -154 226 -235 49 -66
61 -76 82 -71 14 2 25 7 25 11 0 9 -89 122 -137 174 -38 41 -181 168 -186 166
-1 -1 -10 -3 -19 -6z"/>
<path d="M1172 2219 c-113 -56 -204 -182 -226 -311 -12 -73 -6 -202 13 -251
l10 -26 98 61 c109 69 265 145 363 178 36 12 68 25 72 29 8 7 -47 91 -110 171
-43 53 -159 170 -170 170 -4 0 -26 -10 -50 -21z"/>
<path d="M2159 2056 l-47 -22 56 -72 c50 -65 58 -72 91 -72 20 -1 53 -3 74 -6
20 -3 37 -2 37 3 0 19 -143 194 -157 192 -4 0 -29 -11 -54 -23z"/>
<path d="M1830 1901 c0 -20 29 -25 171 -26 109 -1 146 2 142 11 -2 6 -21 14
-41 18 -59 9 -272 7 -272 -3z"/>
<path d="M1733 1893 c-19 -7 3 -43 26 -43 25 0 32 10 20 31 -10 19 -22 22 -46
12z"/>
<path d="M1623 1872 c-27 -4 -27 -3 -11 -37 9 -19 16 -24 32 -19 12 3 25 10
31 15 14 14 -26 46 -52 41z"/>
<path d="M1465 1820 c-144 -60 -312 -158 -422 -247 l-42 -34 20 -34 c13 -21
26 -32 32 -28 7 4 44 30 83 59 104 76 223 149 336 205 l98 50 -15 29 c-9 17
-17 30 -18 29 -1 0 -33 -13 -72 -29z"/>
<path d="M1930 1841 c-45 -6 -48 -9 -32 -37 7 -13 18 -13 73 -5 35 6 100 11
144 11 75 0 78 1 62 17 -13 13 -37 17 -109 18 -51 1 -113 -1 -138 -4z"/>
<path d="M1788 1813 c-14 -4 -15 -8 -6 -29 11 -24 42 -32 53 -14 7 11 -12 51
-23 49 -4 -1 -15 -3 -24 -6z"/>
<path d="M2270 1806 c0 -2 11 -28 24 -57 14 -30 30 -76 37 -103 l12 -49 94
-43 c52 -24 98 -44 103 -44 12 0 -31 123 -76 218 l-35 72 -47 1 c-26 1 -62 3
-79 5 -18 2 -33 2 -33 0z"/>
<path d="M1671 1771 c-9 -6 -11 -18 -7 -35 7 -29 23 -33 50 -13 15 11 17 17 7
35 -12 23 -27 27 -50 13z"/>
<path d="M2055 1774 c-11 -2 -43 -9 -71 -14 l-51 -11 62 -125 c34 -68 84 -189
111 -269 26 -80 51 -145 54 -145 11 0 53 71 76 128 45 113 39 274 -15 398
l-20 44 -63 -1 c-35 -1 -72 -3 -83 -5z"/>
<path d="M233 1747 c-2 -4 -6 -58 -8 -120 -4 -128 13 -252 51 -377 29 -95 88
-230 101 -230 4 0 107 73 228 161 121 88 257 185 301 217 l82 57 -34 65 c-33
65 -53 118 -73 195 l-11 41 -316 0 c-173 0 -318 -4 -321 -9z"/>
<path d="M1505 1689 c-49 -28 -112 -68 -140 -87 -92 -67 -265 -204 -265 -211
0 -4 10 -17 23 -29 l23 -21 34 30 c96 83 387 286 431 301 7 2 6 14 -3 36 l-13
33 -90 -52z"/>
<path d="M1843 1720 c-22 -9 -22 -10 23 -104 48 -102 134 -353 154 -448 l11
-58 30 15 c16 9 29 20 29 26 0 18 -48 182 -81 275 -33 96 -128 304 -138 303
-3 0 -16 -4 -28 -9z"/>
<path d="M1723 1665 c-22 -15 -22 -16 -4 -58 34 -80 84 -241 121 -391 l38
-151 32 2 c17 0 34 3 36 6 14 14 -108 427 -165 560 -22 52 -26 54 -58 32z"/>
<path d="M1545 1548 c-84 -64 -108 -84 -243 -206 -64 -58 -80 -78 -71 -88 21
-26 172 -116 239 -144 85 -35 193 -60 260 -60 l52 0 -7 43 c-38 237 -113 517
-138 517 -7 0 -48 -28 -92 -62z"/>
<path d="M2359 1487 c0 -1 -3 -24 -5 -52 -4 -41 -17 -105 -36 -172 -5 -20 236
-314 244 -299 26 46 36 360 13 417 -4 12 -213 114 -216 106z"/>
<path d="M863 1188 c-114 -82 -254 -182 -310 -221 -56 -40 -102 -75 -102 -78
-1 -3 22 -37 51 -75 71 -94 208 -227 306 -297 118 -85 371 -212 388 -195 5 6
214 735 214 749 0 5 -5 9 -11 9 -25 0 -181 114 -253 184 l-75 74 -208 -150z"/>
<path d="M2215 1118 c-16 -17 -55 -46 -86 -67 l-56 -36 75 -275 c40 -151 78
-279 82 -284 12 -12 132 104 185 179 23 33 56 87 73 120 l30 61 -41 51 c-23
27 -80 97 -127 153 -47 57 -89 109 -95 116 -8 9 -17 5 -40 -18z"/>
<path d="M1442 651 c-56 -197 -102 -364 -102 -369 0 -16 156 -34 285 -33 76 0
153 7 210 20 92 19 240 72 262 94 9 9 -7 81 -70 311 l-82 300 -105 -3 c-94 -2
-165 7 -270 34 l-26 6 -102 -360z"/>
</g>
</svg>
